TITLE ""
FILE "1Q_t_1101-1109.mp3" MP3
  TRACK 01 AUDIO
    TITLE "1Q_t_1101-1109_01"
    INDEX 01 00:00:00
  TRACK 02 AUDIO
    TITLE "1Q_t_1101-1109_02"
    INDEX 01 00:01:41
  TRACK 03 AUDIO
    TITLE "1Q_t_1101-1109_03"
    INDEX 01 00:02:13
  TRACK 04 AUDIO
    TITLE "1Q_t_1101-1109_04"
    INDEX 01 00:03:18
  TRACK 05 AUDIO
    TITLE "1Q_t_1101-1109_05"
    INDEX 01 00:03:63
  TRACK 06 AUDIO
    TITLE "1Q_t_1101-1109_06"
    INDEX 01 00:05:06
  TRACK 07 AUDIO
    TITLE "1Q_t_1101-1109_07"
    INDEX 01 00:05:19
  TRACK 08 AUDIO
    TITLE "1Q_t_1101-1109_08"
    INDEX 01 00:06:58
  TRACK 09 AUDIO
    TITLE "1Q_t_1101-1109_09"
    INDEX 01 00:06:62
  TRACK 10 AUDIO
    TITLE "1Q_t_1101-1109_10"
    INDEX 01 00:11:26
  TRACK 11 AUDIO
    TITLE "1Q_t_1101-1109_11"
    INDEX 01 00:11:71
  TRACK 12 AUDIO
    TITLE "1Q_t_1101-1109_12"
    INDEX 01 00:13:09
  TRACK 13 AUDIO
    TITLE "1Q_t_1101-1109_13"
    INDEX 01 00:13:17
  TRACK 14 AUDIO
    TITLE "1Q_t_1101-1109_14"
    INDEX 01 00:15:61
  TRACK 15 AUDIO
    TITLE "1Q_t_1101-1109_15"
    INDEX 01 00:15:67
  TRACK 16 AUDIO
    TITLE "1Q_t_1101-1109_16"
    INDEX 01 00:20:15
  TRACK 17 AUDIO
    TITLE "1Q_t_1101-1109_17"
    INDEX 01 00:20:58
  TRACK 18 AUDIO
    TITLE "1Q_t_1101-1109_18"
    INDEX 01 00:21:63
  TRACK 19 AUDIO
    TITLE "1Q_t_1101-1109_19"
    INDEX 01 00:21:71
  TRACK 20 AUDIO
    TITLE "1Q_t_1101-1109_20"
    INDEX 01 00:23:60
  TRACK 21 AUDIO
    TITLE "1Q_t_1101-1109_21"
    INDEX 01 00:23:66
  TRACK 22 AUDIO
    TITLE "1Q_t_1101-1109_22"
    INDEX 01 00:27:70
  TRACK 23 AUDIO
    TITLE "1Q_t_1101-1109_23"
    INDEX 01 00:28:42
  TRACK 24 AUDIO
    TITLE "1Q_t_1101-1109_24"
    INDEX 01 00:29:51
  TRACK 25 AUDIO
    TITLE "1Q_t_1101-1109_25"
    INDEX 01 00:29:67
  TRACK 26 AUDIO
    TITLE "1Q_t_1101-1109_26"
    INDEX 01 00:33:04
  TRACK 27 AUDIO
    TITLE "1Q_t_1101-1109_27"
    INDEX 01 00:33:12
  TRACK 28 AUDIO
    TITLE "1Q_t_1101-1109_28"
    INDEX 01 00:38:05
  TRACK 29 AUDIO
    TITLE "1Q_t_1101-1109_29"
    INDEX 01 00:38:48
  TRACK 30 AUDIO
    TITLE "1Q_t_1101-1109_30"
    INDEX 01 00:40:04
  TRACK 31 AUDIO
    TITLE "1Q_t_1101-1109_31"
    INDEX 01 00:40:14
  TRACK 32 AUDIO
    TITLE "1Q_t_1101-1109_32"
    INDEX 01 00:44:10
  TRACK 33 AUDIO
    TITLE "1Q_t_1101-1109_33"
    INDEX 01 00:44:15
  TRACK 34 AUDIO
    TITLE "1Q_t_1101-1109_34"
    INDEX 01 00:49:32
  TRACK 35 AUDIO
    TITLE "1Q_t_1101-1109_35"
    INDEX 01 00:50:02
  TRACK 36 AUDIO
    TITLE "1Q_t_1101-1109_36"
    INDEX 01 00:51:02
  TRACK 37 AUDIO
    TITLE "1Q_t_1101-1109_37"
    INDEX 01 00:51:16
  TRACK 38 AUDIO
    TITLE "1Q_t_1101-1109_38"
    INDEX 01 00:53:73
  TRACK 39 AUDIO
    TITLE "1Q_t_1101-1109_39"
    INDEX 01 00:54:04
  TRACK 40 AUDIO
    TITLE "1Q_t_1101-1109_40"
    INDEX 01 00:58:53
  TRACK 41 AUDIO
    TITLE "1Q_t_1101-1109_41"
    INDEX 01 00:59:33
  TRACK 42 AUDIO
    TITLE "1Q_t_1101-1109_42"
    INDEX 01 01:00:34
  TRACK 43 AUDIO
    TITLE "1Q_t_1101-1109_43"
    INDEX 01 01:00:44
  TRACK 44 AUDIO
    TITLE "1Q_t_1101-1109_44"
    INDEX 01 01:02:04
  TRACK 45 AUDIO
    TITLE "1Q_t_1101-1109_45"
    INDEX 01 01:02:09
  TRACK 46 AUDIO
    TITLE "1Q_t_1101-1109_46"
    INDEX 01 01:06:11
  TRACK 47 AUDIO
    TITLE "1Q_t_1101-1109_47"
    INDEX 01 01:06:56
  TRACK 48 AUDIO
    TITLE "1Q_t_1101-1109_48"
    INDEX 01 01:07:64
  TRACK 49 AUDIO
    TITLE "1Q_t_1101-1109_49"
    INDEX 01 01:07:71
  TRACK 50 AUDIO
    TITLE "1Q_t_1101-1109_50"
    INDEX 01 01:09:35
  TRACK 51 AUDIO
    TITLE "1Q_t_1101-1109_51"
    INDEX 01 01:09:43
  TRACK 52 AUDIO
    TITLE "1Q_t_1101-1109_52"
    INDEX 01 01:14:03
  TRACK 53 AUDIO
    TITLE "1Q_t_1101-1109_53"
    INDEX 01 01:14:50
  TRACK 54 AUDIO
    TITLE "1Q_t_1101-1109_54"
    INDEX 01 01:15:57
  TRACK 55 AUDIO
    TITLE "1Q_t_1101-1109_55"
    INDEX 01 01:15:63
  TRACK 56 AUDIO
    TITLE "1Q_t_1101-1109_56"
    INDEX 01 01:19:08
  TRACK 57 AUDIO
    TITLE "1Q_t_1101-1109_57"
    INDEX 01 01:19:14
  TRACK 58 AUDIO
    TITLE "1Q_t_1101-1109_58"
    INDEX 01 01:22:65
